# xmcd
#
# Track frame offsets:
#	150
#	21869
#	40500
#	50866
#	63143
#	77562
#	89228
#	99135
#	113585
#	136711
#	151798
#	161740
#	172132
#	187128
#	201492
#	218735
#
# Disc length: 3140 seconds
#
# Revision: 1
# Processed by: cddbd v1.5.2PL0 Copyright (c) Steve Scherf et al.
# Submitted via: audiograbber 1.83.01
#
DISCID=d60c4210
DTITLE=Jonny Hill - Schlagerdiamanten
DYEAR=2007
DGENRE=Schlager
TTITLE0=Ruf Teddybär Eins-Vier 
TTITLE1=Sylvia's Mutter (Sylvia's Mother)
TTITLE2=Heute Nacht, da brauch' ich dich (Help Me Make It Through The Night)
TTITLE3=Bist Du einsam heut' Nacht 
TTITLE4=In dem kleinen Haus am See (Blanket On The Ground)
TTITLE5=Oh warum nicht (Oh, Lonesome Me) 
TTITLE6=Oh Susanna
TTITLE7=Vielleicht bist du auch so allein
TTITLE8=Tommy und Strolch
TTITLE9=Am besten etwas mehr als alles
TTITLE10=Komm in meine Welt
TTITLE11=Glücklich sein mit dir allein
TTITLE12=Unerfüllte Träume (My Exclusive Dreams)
TTITLE13=Etwas Liebe am Abend
TTITLE14=Die Zeit wischt die Schminke aus jedem Gesicht
TTITLE15=Rosen für Mama
EXTD=
EXTT0=
EXTT1=
EXTT2=
EXTT3=
EXTT4=
EXTT5=
EXTT6=
EXTT7=
EXTT8=
EXTT9=
EXTT10=
EXTT11=
EXTT12=
EXTT13=
EXTT14=
EXTT15=
PLAYORDER=
